<svg width="18" height="18" viewBox="0 0 18 18" fill="none" xmlns="http://www.w3.org/2000/svg">
<path d="M12.6901 11.4713H11.9001L11.6201 11.2013C12.8201 9.80133 13.4401 7.89133 13.1001 5.86133C12.6301 3.08133 10.3101 0.861329 7.51008 0.521329C3.28008 0.00132874 -0.279921 3.56133 0.240079 7.79133C0.580079 10.5913 2.80008 12.9113 5.58008 13.3813C7.61008 13.7213 9.52008 13.1013 10.9201 11.9013L11.1901 12.1813V12.9713L15.4401 17.2213C15.8501 17.6313 16.5201 17.6313 16.9301 17.2213C17.3401 16.8113 17.3401 16.1413 16.9301 15.7313L12.6901 11.4713ZM6.69008 11.4713C4.20008 11.4713 2.19008 9.46133 2.19008 6.97133C2.19008 4.48133 4.20008 2.47133 6.69008 2.47133C9.18008 2.47133 11.1901 4.48133 11.1901 6.97133C11.1901 9.46133 9.18008 11.4713 6.69008 11.4713Z" fill="#455A64"/>
</svg>
