<svg width="168" height="168" viewBox="0 0 168 168" fill="none" xmlns="http://www.w3.org/2000/svg">
<g filter="url(#filter0_ddd_9330_48310)">
<path d="M21.8405 45.3594C20.9493 45.3594 20.0947 45.7134 19.4646 46.3435C18.8345 46.9736 18.4805 47.8282 18.4805 48.7194C18.4805 49.6105 18.8345 50.4651 19.4646 51.0953C20.0947 51.7254 20.9493 52.0794 21.8405 52.0794C22.7316 52.0794 23.5862 51.7254 24.2163 51.0953C24.8465 50.4651 25.2005 49.6105 25.2005 48.7194C25.2005 47.8282 24.8465 46.9736 24.2163 46.3435C23.5862 45.7134 22.7316 45.3594 21.8405 45.3594Z" fill="#EE3E54"/>
<path d="M129.36 20.1602C128.914 20.1602 128.487 20.3372 128.172 20.6522C127.857 20.9673 127.68 21.3946 127.68 21.8402C127.68 22.2857 127.857 22.713 128.172 23.0281C128.487 23.3432 128.914 23.5202 129.36 23.5202C129.805 23.5202 130.233 23.3432 130.548 23.0281C130.863 22.713 131.04 22.2857 131.04 21.8402C131.04 21.3946 130.863 20.9673 130.548 20.6522C130.233 20.3372 129.805 20.1602 129.36 20.1602Z" fill="#F1BC19"/>
<path d="M83.9998 21.8398C67.514 21.8398 51.7034 28.3888 40.0461 40.0461C28.3888 51.7034 21.8398 67.514 21.8398 83.9998C21.8398 100.486 28.3888 116.296 40.0461 127.954C51.7034 139.611 67.514 146.16 83.9998 146.16C100.486 146.16 116.296 139.611 127.954 127.954C139.611 116.296 146.16 100.486 146.16 83.9998C146.16 67.514 139.611 51.7034 127.954 40.0461C116.296 28.3888 100.486 21.8398 83.9998 21.8398Z" fill="#FCE0A2"/>
<path d="M139.44 18.4805C137.657 18.4805 135.948 19.1885 134.688 20.4487C133.428 21.709 132.72 23.4182 132.72 25.2005C132.72 26.9827 133.428 28.692 134.688 29.9522C135.948 31.2125 137.657 31.9205 139.44 31.9205C141.222 31.9205 142.931 31.2125 144.191 29.9522C145.452 28.692 146.16 26.9827 146.16 25.2005C146.16 23.4182 145.452 21.709 144.191 20.4487C142.931 19.1885 141.222 18.4805 139.44 18.4805Z" fill="#F1BC19"/>
<path d="M146.16 36.9609C145.269 36.9609 144.414 37.3149 143.784 37.9451C143.154 38.5752 142.8 39.4298 142.8 40.3209C142.8 41.2121 143.154 42.0667 143.784 42.6968C144.414 43.3269 145.269 43.6809 146.16 43.6809C147.051 43.6809 147.906 43.3269 148.536 42.6968C149.166 42.0667 149.52 41.2121 149.52 40.3209C149.52 39.4298 149.166 38.5752 148.536 37.9451C147.906 37.3149 147.051 36.9609 146.16 36.9609Z" fill="#EE3E54"/>
<path d="M136.08 124.319C135.189 124.319 134.335 124.673 133.705 125.303C133.074 125.933 132.72 126.788 132.72 127.679C132.72 128.57 133.074 129.425 133.705 130.055C134.335 130.685 135.189 131.039 136.08 131.039C136.972 131.039 137.826 130.685 138.456 130.055C139.086 129.425 139.44 128.57 139.44 127.679C139.44 126.788 139.086 125.933 138.456 125.303C137.826 124.673 136.972 124.319 136.08 124.319ZM25.2005 99.1191C23.4182 99.1191 21.709 99.8271 20.4487 101.087C19.1885 102.348 18.4805 104.057 18.4805 105.839C18.4805 107.621 19.1885 109.331 20.4487 110.591C21.709 111.851 23.4182 112.559 25.2005 112.559C26.9827 112.559 28.692 111.851 29.9522 110.591C31.2125 109.331 31.9205 107.621 31.9205 105.839C31.9205 104.057 31.2125 102.348 29.9522 101.087C28.692 99.8271 26.9827 99.1191 25.2005 99.1191Z" fill="#FBCD59"/>
<path d="M41.9996 142.801C41.1085 142.801 40.2539 143.155 39.6238 143.785C38.9936 144.415 38.6396 145.27 38.6396 146.161C38.6396 147.052 38.9936 147.907 39.6238 148.537C40.2539 149.167 41.1085 149.521 41.9996 149.521C42.8908 149.521 43.7454 149.167 44.3755 148.537C45.0057 147.907 45.3596 147.052 45.3596 146.161C45.3596 145.27 45.0057 144.415 44.3755 143.785C43.7454 143.155 42.8908 142.801 41.9996 142.801Z" fill="#EE3E54"/>
<path d="M31.0799 85.6797C29.966 85.6797 28.8977 86.1222 28.11 86.9098C27.3224 87.6975 26.8799 88.7658 26.8799 89.8797C26.8799 90.9936 27.3224 92.0619 28.11 92.8495C28.8977 93.6372 29.966 94.0797 31.0799 94.0797C32.1938 94.0797 33.2621 93.6372 34.0497 92.8495C34.8374 92.0619 35.2799 90.9936 35.2799 89.8797C35.2799 88.7658 34.8374 87.6975 34.0497 86.9098C33.2621 86.1222 32.1938 85.6797 31.0799 85.6797Z" fill="white"/>
<path d="M35.2796 110.881C34.834 110.881 34.4067 111.058 34.0917 111.373C33.7766 111.688 33.5996 112.115 33.5996 112.561C33.5996 113.006 33.7766 113.434 34.0917 113.749C34.4067 114.064 34.834 114.241 35.2796 114.241C35.7252 114.241 36.1525 114.064 36.4676 113.749C36.7826 113.434 36.9596 113.006 36.9596 112.561C36.9596 112.115 36.7826 111.688 36.4676 111.373C36.1525 111.058 35.7252 110.881 35.2796 110.881Z" fill="#F1BC19"/>
<path d="M134.4 55.4395C133.954 55.4395 133.527 55.6165 133.212 55.9315C132.897 56.2466 132.72 56.6739 132.72 57.1195C132.72 57.565 132.897 57.9923 133.212 58.3074C133.527 58.6225 133.954 58.7995 134.4 58.7995C134.845 58.7995 135.273 58.6225 135.588 58.3074C135.903 57.9923 136.08 57.565 136.08 57.1195C136.08 56.6739 135.903 56.2466 135.588 55.9315C135.273 55.6165 134.845 55.4395 134.4 55.4395Z" fill="white"/>
<path d="M63.6689 75.0938H68.8769V96.0938H63.6689V75.0938Z" fill="#78CDD4"/>
<path d="M63.0002 95.7596C62.4962 95.7596 62.1602 95.4236 62.1602 94.9196V76.4396C62.1602 75.9356 62.4962 75.5996 63.0002 75.5996C63.5042 75.5996 63.8402 75.9356 63.8402 76.4396V94.9196C63.8402 95.4236 63.5042 95.7596 63.0002 95.7596ZM69.7202 95.7596C69.2162 95.7596 68.8802 95.4236 68.8802 94.9196V76.4396C68.8802 75.9356 69.2162 75.5996 69.7202 75.5996C70.2242 75.5996 70.5602 75.9356 70.5602 76.4396V94.9196C70.5602 95.4236 70.2242 95.7596 69.7202 95.7596Z" fill="#472B29"/>
<path d="M75.9346 71.4004L78.8394 65.1549L103.669 76.7031L100.764 82.9487L75.9346 71.4004Z" fill="#78CDD4"/>
<path d="M96.7708 81.6492C96.6028 81.6492 96.6028 81.6492 96.4348 81.6492L79.6348 73.9212C79.1308 73.7532 78.9628 73.2492 79.2988 72.7452C79.4668 72.2412 79.9708 72.0732 80.4748 72.4092L97.2748 80.1372C97.7788 80.3052 97.9468 80.8092 97.6108 81.3132C97.4428 81.4812 97.1068 81.6492 96.7708 81.6492Z" fill="#472B29"/>
<path d="M99.6213 75.5999C99.4533 75.5999 99.4533 75.5999 99.2853 75.5999L88.5333 70.5599C88.0293 70.3919 87.8613 69.8879 88.1973 69.3839C88.3653 68.8799 88.8693 68.7119 89.3733 69.0479L100.125 74.0879C100.629 74.2559 100.797 74.7599 100.461 75.2639C100.293 75.4319 99.9573 75.5999 99.6213 75.5999Z" fill="#472B29"/>
<path d="M78.8086 97.1191L104.248 85.2875L107.223 91.6853L81.7842 103.517L78.8086 97.1191Z" fill="#78CDD4"/>
<path d="M88.1999 101.136C87.8639 101.136 87.5279 100.968 87.3599 100.632C87.1919 100.128 87.3599 99.7916 87.6959 99.4556L99.1199 94.0796C99.6239 93.9116 99.9599 94.0796 100.296 94.4156C100.464 94.9196 100.296 95.2556 99.9599 95.5916L88.5359 100.968C88.3679 100.968 88.1999 101.136 88.1999 101.136Z" fill="#472B29"/>
<path d="M79.9713 97.4368C79.6353 97.4368 79.2993 97.2688 79.1313 96.9328C78.9633 96.4288 79.1313 96.0928 79.4673 95.7568L96.2673 88.0288C96.7713 87.8608 97.1073 88.0288 97.4433 88.3648C97.7793 88.7008 97.4433 89.2048 97.1073 89.5408L80.3073 97.2688C80.3073 97.4368 80.1393 97.4368 79.9713 97.4368Z" fill="#472B29"/>
<path d="M111.719 68.373C109.557 68.373 107.416 68.7989 105.418 69.6263C103.421 70.4537 101.606 71.6664 100.077 73.1952C98.5483 74.7241 97.3355 76.539 96.5081 78.5365C95.6807 80.5341 95.2549 82.675 95.2549 84.837C95.2549 86.9991 95.6807 89.14 96.5081 91.1375C97.3355 93.1351 98.5483 94.95 100.077 96.4789C101.606 98.0077 103.421 99.2204 105.418 100.048C107.416 100.875 109.557 101.301 111.719 101.301C113.881 101.301 116.022 100.875 118.019 100.048C120.017 99.2204 121.832 98.0077 123.361 96.4789C124.89 94.95 126.102 93.1351 126.93 91.1375C127.757 89.14 128.183 86.9991 128.183 84.837C128.183 82.675 127.757 80.5341 126.93 78.5365C126.102 76.539 124.89 74.7241 123.361 73.1952C121.832 71.6664 120.017 70.4537 118.019 69.6263C116.022 68.7989 113.881 68.373 111.719 68.373Z" fill="#78CDD4"/>
<path d="M111.72 69.5512C120.12 69.5512 127.008 76.4392 127.008 84.8392C127.008 93.2392 120.12 100.127 111.72 100.127C103.32 100.127 96.4321 93.2392 96.4321 84.8392C96.4321 76.4392 103.32 69.5512 111.72 69.5512ZM111.72 67.1992C101.976 67.1992 94.0801 75.0952 94.0801 84.8392C94.0801 94.5832 101.976 102.479 111.72 102.479C121.464 102.479 129.36 94.5832 129.36 84.8392C129.36 75.0952 121.464 67.1992 111.72 67.1992Z" fill="#472B29"/>
<path d="M111.72 95.7599C105.672 95.7599 100.8 90.8879 100.8 84.8399C100.8 78.7919 105.672 73.9199 111.72 73.9199C112.224 73.9199 112.56 74.2559 112.56 74.7599C112.56 75.2639 112.224 75.5999 111.72 75.5999C106.68 75.5999 102.48 79.7999 102.48 84.8399C102.48 89.8799 106.68 94.0799 111.72 94.0799C116.76 94.0799 120.96 89.8799 120.96 84.8399C120.96 84.3359 121.296 83.9999 121.8 83.9999C122.304 83.9999 122.64 84.3359 122.64 84.8399C122.64 90.8879 117.768 95.7599 111.72 95.7599ZM120.792 81.1439C120.456 81.1439 120.12 80.9759 120.12 80.6399C119.28 78.9599 117.936 77.6159 116.256 76.6079C115.92 76.4399 115.752 75.9359 115.92 75.4319C116.088 75.0959 116.592 74.9279 117.096 75.0959C119.112 76.1039 120.624 77.7839 121.632 79.7999C121.8 80.1359 121.632 80.6399 121.296 80.9759C120.96 81.1439 120.96 81.1439 120.792 81.1439Z" fill="#472B29"/>
<path d="M66.3585 46.5332C61.992 46.5332 57.8043 48.2678 54.7167 51.3554C51.6291 54.443 49.8945 58.6307 49.8945 62.9972C49.8945 67.3637 51.6291 71.5514 54.7167 74.639C57.8043 77.7266 61.992 79.4612 66.3585 79.4612C70.7251 79.4612 74.9127 77.7266 78.0003 74.639C81.0879 71.5514 82.8225 67.3637 82.8225 62.9972C82.8225 58.6307 81.0879 54.443 78.0003 51.3554C74.9127 48.2678 70.7251 46.5332 66.3585 46.5332Z" fill="#78CDD4"/>
<path d="M66.3597 47.7114C74.7597 47.7114 81.6477 54.5994 81.6477 62.9994C81.6477 71.3994 74.7597 78.2874 66.3597 78.2874C57.9597 78.2874 51.0717 71.3994 51.0717 62.9994C51.0717 54.5994 57.9597 47.7114 66.3597 47.7114ZM66.3597 45.3594C56.6157 45.3594 48.7197 53.2554 48.7197 62.9994C48.7197 72.7434 56.6157 80.6394 66.3597 80.6394C76.1037 80.6394 83.9997 72.7434 83.9997 62.9994C83.9997 53.2554 76.1037 45.3594 66.3597 45.3594Z" fill="#472B29"/>
<path d="M66.3604 73.9201C60.3124 73.9201 55.4404 69.0481 55.4404 63.0001C55.4404 56.9521 60.3124 52.0801 66.3604 52.0801C66.8644 52.0801 67.2004 52.4161 67.2004 52.9201C67.2004 53.4241 66.8644 53.7601 66.3604 53.7601C61.3204 53.7601 57.1204 57.9601 57.1204 63.0001C57.1204 68.0401 61.3204 72.2401 66.3604 72.2401C71.4004 72.2401 75.6004 68.0401 75.6004 63.0001C75.6004 62.4961 75.9364 62.1601 76.4404 62.1601C76.9444 62.1601 77.2804 62.4961 77.2804 63.0001C77.2804 69.0481 72.4084 73.9201 66.3604 73.9201ZM75.4324 59.3041C75.0964 59.3041 74.7604 59.1361 74.7604 58.8001C73.9204 57.1201 72.5764 55.7761 70.8964 54.7681C70.5604 54.6001 70.3924 54.0961 70.5604 53.5921C70.7284 53.2561 71.2324 53.0881 71.7364 53.2561C73.7524 54.2641 75.2644 55.9441 76.2724 57.9601C76.4404 58.2961 76.2724 58.8001 75.9364 59.1361C75.6004 59.3041 75.6004 59.3041 75.4324 59.3041Z" fill="#472B29"/>
<path d="M66.3585 91.8945C64.1964 91.8945 62.0555 92.3204 60.058 93.1478C58.0605 93.9752 56.2456 95.1879 54.7167 96.7167C53.1879 98.2456 51.9752 100.061 51.1478 102.058C50.3204 104.056 49.8945 106.196 49.8945 108.359C49.8945 110.521 50.3204 112.662 51.1478 114.659C51.9752 116.657 53.1879 118.472 54.7167 120C56.2456 121.529 58.0605 122.742 60.058 123.569C62.0555 124.397 64.1964 124.823 66.3585 124.823C68.5206 124.823 70.6615 124.397 72.659 123.569C74.6565 122.742 76.4715 121.529 78.0003 120C79.5292 118.472 80.7419 116.657 81.5693 114.659C82.3967 112.662 82.8225 110.521 82.8225 108.359C82.8225 106.196 82.3967 104.056 81.5693 102.058C80.7419 100.061 79.5292 98.2456 78.0003 96.7167C76.4715 95.1879 74.6565 93.9752 72.659 93.1478C70.6615 92.3204 68.5206 91.8945 66.3585 91.8945Z" fill="#78CDD4"/>
<path d="M66.3597 93.0727C74.7597 93.0727 81.6477 99.9607 81.6477 108.361C81.6477 116.761 74.7597 123.649 66.3597 123.649C57.9597 123.649 51.0717 116.761 51.0717 108.361C51.0717 99.9607 57.9597 93.0727 66.3597 93.0727ZM66.3597 90.7207C56.6157 90.7207 48.7197 98.6167 48.7197 108.361C48.7197 118.105 56.6157 126.001 66.3597 126.001C76.1037 126.001 83.9997 118.105 83.9997 108.361C83.9997 98.6167 76.1037 90.7207 66.3597 90.7207Z" fill="#472B29"/>
<path d="M66.3604 119.279C60.3124 119.279 55.4404 114.407 55.4404 108.359C55.4404 102.311 60.3124 97.4395 66.3604 97.4395C66.8644 97.4395 67.2004 97.7755 67.2004 98.2795C67.2004 98.7835 66.8644 99.1195 66.3604 99.1195C61.3204 99.1195 57.1204 103.319 57.1204 108.359C57.1204 113.399 61.3204 117.599 66.3604 117.599C71.4004 117.599 75.6004 113.399 75.6004 108.359C75.6004 107.855 75.9364 107.519 76.4404 107.519C76.9444 107.519 77.2804 107.855 77.2804 108.359C77.2804 114.407 72.4084 119.279 66.3604 119.279ZM75.4324 104.663C75.0964 104.663 74.7604 104.495 74.7604 104.159C73.9204 102.479 72.5764 101.135 70.8964 100.127C70.5604 99.9595 70.3924 99.4555 70.5604 98.9515C70.7284 98.4475 71.2324 98.4475 71.7364 98.6155C73.7524 99.6235 75.2644 101.303 76.2724 103.319C76.4404 103.655 76.2724 104.159 75.9364 104.495C75.6004 104.663 75.6004 104.663 75.4324 104.663Z" fill="#472B29"/>
</g>
<defs>
<filter id="filter0_ddd_9330_48310" x="-16" y="-14" width="200" height="200" filterUnits="userSpaceOnUse" color-interpolation-filters="sRGB">
<feFlood flood-opacity="0" result="BackgroundImageFix"/>
<feColorMatrix in="SourceAlpha" type="matrix" values="0 0 0 0 0 0 0 0 0 0 0 0 0 0 0 0 0 0 127 0" result="hardAlpha"/>
<feMorphology radius="1" operator="dilate" in="SourceAlpha" result="effect1_dropShadow_9330_48310"/>
<feOffset dy="2"/>
<feGaussianBlur stdDeviation="7.5"/>
<feColorMatrix type="matrix" values="0 0 0 0 0.564706 0 0 0 0 0.643137 0 0 0 0 0.682353 0 0 0 0.11 0"/>
<feBlend mode="normal" in2="BackgroundImageFix" result="effect1_dropShadow_9330_48310"/>
<feColorMatrix in="SourceAlpha" type="matrix" values="0 0 0 0 0 0 0 0 0 0 0 0 0 0 0 0 0 0 127 0" result="hardAlpha"/>
<feMorphology radius="1" operator="dilate" in="SourceAlpha" result="effect2_dropShadow_9330_48310"/>
<feOffset dy="7"/>
<feGaussianBlur stdDeviation="5"/>
<feColorMatrix type="matrix" values="0 0 0 0 0.564706 0 0 0 0 0.643137 0 0 0 0 0.682353 0 0 0 0.14 0"/>
<feBlend mode="normal" in2="effect1_dropShadow_9330_48310" result="effect2_dropShadow_9330_48310"/>
<feColorMatrix in="SourceAlpha" type="matrix" values="0 0 0 0 0 0 0 0 0 0 0 0 0 0 0 0 0 0 127 0" result="hardAlpha"/>
<feMorphology radius="2" operator="erode" in="SourceAlpha" result="effect3_dropShadow_9330_48310"/>
<feOffset dy="4"/>
<feGaussianBlur stdDeviation="2.5"/>
<feColorMatrix type="matrix" values="0 0 0 0 0.564706 0 0 0 0 0.643137 0 0 0 0 0.682353 0 0 0 0.25 0"/>
<feBlend mode="normal" in2="effect2_dropShadow_9330_48310" result="effect3_dropShadow_9330_48310"/>
<feBlend mode="normal" in="SourceGraphic" in2="effect3_dropShadow_9330_48310" result="shape"/>
</filter>
</defs>
</svg>
